<svg xmlns="http://www.w3.org/2000/svg" id="Layer_2" viewBox="0 0 1007.94 333.79"><defs><style>.cls-1{fill:#0044df}.cls-2{fill:#59d300}</style></defs><g id="Layer_1-2"><path d="M.23 327.58v-28.01h21.12v5.48h-15v5.68h13.2v5.48H6.35v5.88h15.2v5.48H.23ZM48.27 327.58l-2.56-6.28H33.87l-2.56 6.28h-6.28l12-28.21h5.68l12 28.21h-6.44Zm-8.48-20.8-3.72 9.08h7.44l-3.72-9.08ZM65.59 305.18v5.96h13.36v5.6H65.59v10.84h-6.16v-28.01h21.33v5.6H65.6ZM97.71 317.18v-3.24h11.12v3.24H97.71ZM140.99 328.07c-8.08 0-14.04-6.36-14.04-14.44s5.92-14.52 14.16-14.52c5.08 0 8.12 1.8 10.92 4.44l-2.16 2.32c-2.36-2.24-5-3.84-8.8-3.84-6.2 0-10.84 5-10.84 11.52s4.68 11.6 10.84 11.6c3.84 0 6.36-1.48 9.04-4.04l2.08 2.04c-2.92 2.96-6.12 4.92-11.2 4.92ZM160.66 327.58h-3.08v-20.69h3.08v5.4c1.52-3.44 4.52-5.92 8.44-5.76v3.32h-.24c-4.52 0-8.2 3.24-8.2 9.48v8.24ZM174.26 302.38v-3.4h3.52v3.4h-3.52Zm.2 25.21V306.9h3.08v20.69h-3.08ZM186.3 310.86l-.92-2.52c2.28-1.04 4.52-1.72 7.52-1.72 5.64 0 8.8 2.88 8.8 8.32v12.64h-2.96v-3.12c-1.44 1.88-3.84 3.56-7.48 3.56-3.84 0-7.72-2.16-7.72-6.48s3.6-6.72 8.84-6.72c2.64 0 4.52.36 6.36.88v-.72c0-3.72-2.28-5.64-6.16-5.64-2.44 0-4.36.64-6.28 1.52Zm.36 10.56c0 2.64 2.4 4.16 5.2 4.16 3.8 0 6.92-2.32 6.92-5.6v-2c-1.52-.44-3.56-.88-6.08-.88-3.88 0-6.04 1.68-6.04 4.32ZM225.26 327.58v-4.16c-1.68 2.48-4.12 4.6-7.92 4.6-4.96 0-9.88-3.92-9.88-10.76s4.92-10.8 9.88-10.8c3.84 0 6.32 2.08 7.92 4.4v-12.48h3.08v29.21h-3.08Zm-7.36-18.37c-4 0-7.28 2.96-7.28 8s3.36 8.04 7.28 8.04 7.48-3.2 7.48-8.04-3.64-8-7.48-8ZM236.82 310.86l-.92-2.52c2.28-1.04 4.52-1.72 7.52-1.72 5.64 0 8.8 2.88 8.8 8.32v12.64h-2.96v-3.12c-1.44 1.88-3.84 3.56-7.48 3.56-3.84 0-7.72-2.16-7.72-6.48s3.6-6.72 8.84-6.72c2.64 0 4.52.36 6.36.88v-.72c0-3.72-2.28-5.64-6.16-5.64-2.44 0-4.36.64-6.28 1.52Zm.36 10.56c0 2.64 2.4 4.16 5.2 4.16 3.8 0 6.92-2.32 6.92-5.6v-2c-1.52-.44-3.56-.88-6.08-.88-3.88 0-6.04 1.68-6.04 4.32ZM280.9 328.07c-6.04 0-10.6-4.92-10.6-10.76s4.56-10.84 10.6-10.84c3.92 0 6.36 1.64 8.28 3.68l-2.04 2.16c-1.64-1.72-3.48-3.12-6.28-3.12-4.2 0-7.4 3.56-7.4 8.04s3.28 8.08 7.6 8.08c2.64 0 4.68-1.32 6.32-3.08l1.96 1.84c-2.08 2.32-4.56 4-8.44 4ZM303.66 328.07c-6.2 0-10.72-4.88-10.72-10.76s4.56-10.84 10.8-10.84 10.76 4.88 10.76 10.76-4.6 10.84-10.84 10.84Zm0-18.88c-4.48 0-7.56 3.56-7.56 8.04s3.28 8.08 7.64 8.08 7.6-3.56 7.6-8-3.32-8.12-7.68-8.12ZM323.54 327.58h-3.08v-20.69h3.08v3.6c1.36-2.24 3.52-4.04 7.08-4.04 5 0 7.92 3.36 7.92 8.28v12.84h-3.08v-12.08c0-3.84-2.08-6.24-5.72-6.24s-6.2 2.6-6.2 6.48v11.84ZM356.26 306.98v2.64h-6.52v17.96h-3.08v-17.96h-2.84v-2.68h2.84v-1.8c0-4.52 2.28-6.92 6.24-6.92 1.44 0 2.4.16 3.4.52v2.68c-1.12-.32-1.96-.52-3-.52-2.4 0-3.6 1.44-3.6 4.4v1.68h6.56ZM369.62 328.07c-6.2 0-10.72-4.88-10.72-10.76s4.56-10.84 10.8-10.84 10.76 4.88 10.76 10.76-4.6 10.84-10.84 10.84Zm0-18.88c-4.48 0-7.56 3.56-7.56 8.04s3.28 8.08 7.64 8.08 7.6-3.56 7.6-8-3.32-8.12-7.68-8.12ZM389.5 327.58h-3.08v-20.69h3.08v5.4c1.52-3.44 4.52-5.92 8.44-5.76v3.32h-.24c-4.52 0-8.2 3.24-8.2 9.48v8.24ZM426.7 306.46c4.76 0 7.68 3.2 7.68 8.32v12.8h-3.08V315.5c0-4-2-6.24-5.36-6.24-3.12 0-5.72 2.32-5.72 6.4v11.92h-3.04v-12.16c0-3.88-2.04-6.16-5.32-6.16s-5.76 2.72-5.76 6.52v11.8h-3.08v-20.69h3.08v3.48c1.36-2.04 3.2-3.92 6.68-3.92s5.52 1.8 6.64 4.12c1.48-2.28 3.68-4.12 7.28-4.12ZM450.58 325.38c2.84 0 4.84-1.16 6.52-2.92l1.92 1.72c-2.08 2.32-4.6 3.88-8.52 3.88-5.68 0-10.32-4.36-10.32-10.8 0-6 4.2-10.8 9.92-10.8 6.12 0 9.64 4.88 9.64 10.96 0 .28 0 .6-.04.96h-16.4c.44 4.48 3.64 7 7.28 7Zm6.04-9.28c-.32-3.76-2.48-7.04-6.6-7.04-3.6 0-6.32 3-6.72 7.04h13.32ZM494.54 327.58v-4.16c-1.68 2.48-4.12 4.6-7.92 4.6-4.96 0-9.88-3.92-9.88-10.76s4.92-10.8 9.88-10.8c3.84 0 6.32 2.08 7.92 4.4v-12.48h3.08v29.21h-3.08Zm-7.36-18.37c-4 0-7.28 2.96-7.28 8s3.36 8.04 7.28 8.04 7.48-3.2 7.48-8.04-3.64-8-7.48-8ZM514.01 325.38c2.84 0 4.84-1.16 6.52-2.92l1.92 1.72c-2.08 2.32-4.6 3.88-8.52 3.88-5.68 0-10.32-4.36-10.32-10.8 0-6 4.2-10.8 9.92-10.8 6.12 0 9.64 4.88 9.64 10.96 0 .28 0 .6-.04.96h-16.4c.44 4.48 3.64 7 7.28 7Zm6.04-9.28c-.32-3.76-2.48-7.04-6.6-7.04-3.6 0-6.32 3-6.72 7.04h13.32ZM533.13 321.7c0 2.52 1.4 3.44 3.48 3.44 1.04 0 1.92-.2 3-.72v2.64c-1.08.56-2.24.88-3.72.88-3.32 0-5.84-1.64-5.84-5.84v-12.48h-2.88v-2.72h2.88v-6.24h3.08v6.24h6.56v2.72h-6.56v12.08ZM554.05 325.38c2.84 0 4.84-1.16 6.52-2.92l1.92 1.72c-2.08 2.32-4.6 3.88-8.52 3.88-5.68 0-10.32-4.36-10.32-10.8 0-6 4.2-10.8 9.92-10.8 6.12 0 9.64 4.88 9.64 10.96 0 .28 0 .6-.04.96h-16.4c.44 4.48 3.64 7 7.28 7Zm6.04-9.28c-.32-3.76-2.48-7.04-6.6-7.04-3.6 0-6.32 3-6.72 7.04h13.32ZM572.09 327.58h-3.08v-20.69h3.08v5.4c1.52-3.44 4.52-5.92 8.44-5.76v3.32h-.24c-4.52 0-8.2 3.24-8.2 9.48v8.24ZM609.3 306.46c4.76 0 7.68 3.2 7.68 8.32v12.8h-3.08V315.5c0-4-2-6.24-5.36-6.24-3.12 0-5.72 2.32-5.72 6.4v11.92h-3.04v-12.16c0-3.88-2.04-6.16-5.32-6.16s-5.76 2.72-5.76 6.52v11.8h-3.08v-20.69h3.08v3.48c1.36-2.04 3.2-3.92 6.68-3.92s5.52 1.8 6.64 4.12c1.48-2.28 3.68-4.12 7.28-4.12ZM624.13 302.38v-3.4h3.52v3.4h-3.52Zm.2 25.21V306.9h3.08v20.69h-3.08ZM638.05 327.58h-3.08v-20.69h3.08v3.6c1.36-2.24 3.52-4.04 7.08-4.04 5 0 7.92 3.36 7.92 8.28v12.84h-3.08v-12.08c0-3.84-2.08-6.24-5.72-6.24s-6.2 2.6-6.2 6.48v11.84ZM661.21 310.86l-.92-2.52c2.28-1.04 4.52-1.72 7.52-1.72 5.64 0 8.8 2.88 8.8 8.32v12.64h-2.96v-3.12c-1.44 1.88-3.84 3.56-7.48 3.56-3.84 0-7.72-2.16-7.72-6.48s3.6-6.72 8.84-6.72c2.64 0 4.52.36 6.36.88v-.72c0-3.72-2.28-5.64-6.16-5.64-2.44 0-4.36.64-6.28 1.52Zm.36 10.56c0 2.64 2.4 4.16 5.2 4.16 3.8 0 6.92-2.32 6.92-5.6v-2c-1.52-.44-3.56-.88-6.08-.88-3.88 0-6.04 1.68-6.04 4.32ZM682.29 317.3c0-5.88 4.56-10.84 10.6-10.84 3.92 0 6.36 1.64 8.28 3.68l-2.04 2.16c-1.64-1.72-3.48-3.12-6.28-3.12-4.2 0-7.4 3.56-7.4 8.04s3.28 8.08 7.6 8.08c2.64 0 4.68-1.32 6.32-3.08l1.96 1.84c-2 2.2-4.28 3.8-7.84 4l-2.64 5.72-3-1.36 3.12-4.56c-5.04-.88-8.68-5.32-8.68-10.56ZM708.01 310.86l-.92-2.52c2.28-1.04 4.52-1.72 7.52-1.72 5.64 0 8.8 2.88 8.8 8.32v12.64h-2.96v-3.12c-1.44 1.88-3.84 3.56-7.48 3.56-3.84 0-7.72-2.16-7.72-6.48s3.6-6.72 8.84-6.72c2.64 0 4.52.36 6.36.88v-.72c0-3.72-2.28-5.64-6.16-5.64-2.44 0-4.36.64-6.28 1.52Zm.36 10.56c0 2.64 2.4 4.16 5.2 4.16 3.8 0 6.92-2.32 6.92-5.6v-2c-1.52-.44-3.56-.88-6.08-.88-3.88 0-6.04 1.68-6.04 4.32Zm9.44-17.64c-1.8 0-4-1.6-5.36-1.6-1.04 0-1.48.52-2.08 1.96l-1.88-.52c.8-3 1.88-4.2 3.8-4.2 1.8 0 4 1.6 5.36 1.6 1.04 0 1.48-.52 2.08-1.96l1.88.52c-.8 3-1.88 4.2-3.8 4.2ZM739.81 328.07c-6.2 0-10.72-4.88-10.72-10.76s4.56-10.84 10.8-10.84 10.76 4.88 10.76 10.76-4.6 10.84-10.84 10.84Zm0-18.88c-4.48 0-7.56 3.56-7.56 8.04s3.28 8.08 7.64 8.08 7.6-3.56 7.6-8-3.32-8.12-7.68-8.12ZM785.61 327.58v-4.16c-1.68 2.48-4.12 4.6-7.92 4.6-4.96 0-9.88-3.92-9.88-10.76s4.92-10.8 9.88-10.8c3.84 0 6.32 2.08 7.92 4.4v-12.48h3.08v29.21h-3.08Zm-7.36-18.37c-4 0-7.28 2.96-7.28 8s3.36 8.04 7.28 8.04 7.48-3.2 7.48-8.04-3.64-8-7.48-8ZM797.16 310.86l-.92-2.52c2.28-1.04 4.52-1.72 7.52-1.72 5.64 0 8.8 2.88 8.8 8.32v12.64h-2.96v-3.12c-1.44 1.88-3.84 3.56-7.48 3.56-3.84 0-7.72-2.16-7.72-6.48s3.6-6.72 8.84-6.72c2.64 0 4.52.36 6.36.88v-.72c0-3.72-2.28-5.64-6.16-5.64-2.44 0-4.36.64-6.28 1.52Zm.36 10.56c0 2.64 2.4 4.16 5.2 4.16 3.8 0 6.92-2.32 6.92-5.6v-2c-1.52-.44-3.56-.88-6.08-.88-3.88 0-6.04 1.68-6.04 4.32ZM858.53 327.58h-3.4l-3.28-7.4h-15.24l-3.32 7.4h-3.24l12.76-28.21h2.96l12.76 28.21Zm-14.28-24.53-6.4 14.28h12.76l-6.36-14.28ZM885.05 299.58h3.08v28.01h-2.52l-18.08-22.96v22.96h-3.08v-28.01h2.96l17.64 22.44v-22.44ZM922.53 327.58h-3.4l-3.28-7.4h-15.24l-3.32 7.4h-3.24l12.76-28.21h2.96l12.76 28.21Zm-14.28-24.53-6.4 14.28h12.76l-6.36-14.28ZM935.44 327.58h-3.2v-25.09h-9.4v-2.92h22v2.92h-9.4v25.09ZM971.4 302.46h-17.08v9.56h15.28v2.88h-15.28v9.8h17.28v2.88h-20.44v-28.01h20.24v2.88ZM978.36 299.58h3.16v25.08h15.76v2.92h-18.92v-28.01Z" class="cls-1"/><path d="M720.15 149.37c6.54-6.54 10.54-14.88 12.15-24.16.03-.19-.06-.2-.14-.02-1.47 3.28-3.49 6.37-6.08 9.19-17.34 18.91-53.64 13.83-81.09-11.34-27.45-25.17-35.64-60.9-18.31-79.8 17.34-18.91 53.73-8.59 81.18 16.57a111.6 111.6 0 0 1 9.32 9.61c.08.09.19 0 .12-.11-3.4-4.88-7.33-9.59-11.78-14.04-30.03-30.03-72.15-36.58-94.1-14.63-21.94 21.94-15.39 64.07 14.63 94.1 5.74 5.74 11.93 10.62 18.33 14.61l-39.86 93.66h28.34l11.55-28.34 9.93-24.55 12.55-30.62c3.13.9 6.25 1.59 9.34 2.07l11.7 28.55 9.93 24.55 11.55 28.34h29.07l-35.42-83.23c6.44-2.12 12.26-5.57 17.09-10.4Z" class="cls-2"/><path d="m764.56 65.19-18.15-18.15-13.2 13.2c-2.5 2.5-2.87 6.61-.5 9.23 2.52 2.8 6.84 2.88 9.47.25l8.87-8.87 5.51 5.51-51.35 51.35a4.913 4.913 0 0 0 0 6.95 4.913 4.913 0 0 0 6.95 0l52.41-52.41a4.98 4.98 0 0 0 0-7.05Z" class="cls-2"/><path d="M796.17 243h-49.29V116.63h49.29c39.72 0 67.16 27.26 67.16 62.82v.36c0 35.56-27.44 63.19-67.16 63.19Zm38.09-63.19c0-22.39-15.35-38.09-38.09-38.09h-21.48v76.19h21.48c22.75 0 38.09-15.35 38.09-37.73v-.36ZM940.6 242.64c-38.99 0-66.97-29.06-66.97-64.99v-.36c0-35.92 28.34-65.35 67.33-65.35s66.97 29.06 66.97 64.99v.36c0 35.92-28.34 65.35-67.33 65.35Zm38.27-65.35c0-21.66-15.88-39.71-38.27-39.71s-37.91 17.69-37.91 39.35v.36c0 21.66 15.89 39.72 38.27 39.72s37.91-17.69 37.91-39.35v-.36ZM104.89 243l-11.55-28.34H39.9L28.35 243H0l54.16-127.27H79.8L133.96 243h-29.07Zm-38.27-93.88L49.83 190.1h33.58l-16.79-40.98ZM228.8 243l-61.2-80.34V243h-27.44V116.63h25.64l59.21 77.81v-77.81h27.44V243H228.8ZM328.16 142.26V243h-27.8V142.26h-38.45v-25.64h104.71v25.64h-38.45ZM375.48 243V116.63h95.32v24.73h-67.7V167h59.57v24.73H403.1v26.54h68.6V243h-96.22ZM572.78 243l-61.2-80.34V243h-27.44V116.63h25.63l59.21 77.81v-77.81h27.44V243h-23.65Z" class="cls-1"/><path d="M796.17 243h-49.29V116.63h49.29c39.72 0 67.16 27.26 67.16 62.82v.36c0 35.56-27.44 63.19-67.16 63.19Zm38.09-63.19c0-22.39-15.35-38.09-38.09-38.09h-21.48v76.19h21.48c22.75 0 38.09-15.35 38.09-37.73v-.36ZM66.41 82.02c-12.04 0-24.2-4.2-33.74-12.72l10.34-12.38c7.16 5.91 14.66 9.66 23.74 9.66 7.16 0 11.47-2.84 11.47-7.5v-.23c0-4.43-2.73-6.7-16.02-10.11-16.02-4.09-26.36-8.52-26.36-24.31v-.23C35.85 9.77 47.44.23 63.68.23c11.59 0 21.47 3.64 29.54 10.11l-9.09 13.18c-7.04-4.89-13.97-7.84-20.68-7.84s-10.23 3.07-10.23 6.93v.23c0 5.23 3.41 6.93 17.15 10.45 16.13 4.2 25.22 10 25.22 23.86v.23c0 15.79-12.04 24.65-29.2 24.65ZM116.93 80.89V1.36h17.5v79.53h-17.5ZM198.29 82.25c-24.77 0-41.81-17.38-41.81-40.9v-.23C156.48 18.51 174.09 0 198.17 0c14.31 0 22.95 3.86 31.24 10.91L218.39 24.2c-6.13-5.11-11.59-8.07-20.79-8.07-12.72 0-22.84 11.25-22.84 24.77v.23c0 14.54 10 25.22 24.09 25.22 6.36 0 12.04-1.59 16.47-4.77V50.22h-17.61V35.11h34.54v34.54c-8.18 6.93-19.43 12.61-33.97 12.61ZM311.94 80.89l-7.27-17.84h-33.63l-7.27 17.84h-17.84L280.01.79h16.13l34.08 80.09h-18.29Zm-24.08-59.08L277.29 47.6h21.13l-10.56-25.79Z" class="cls-1"/></g></svg>
